<svg fill="none" height="24" viewBox="0 0 24 24" width="24" xmlns="http://www.w3.org/2000/svg"><g fill="#292d32"><path d="m13.05 16.2502h-1.88c-1.32999 0-2.42-1.12-2.42-2.5 0-.41.34-.75.75-.75s.75.34.75.75c0 .55.41 1 .92 1h1.88c.39 0 .7-.35.7-.78 0-.54-.15-.62-.49-.74l-3.01-1.05c-.64-.22-1.5-.69-1.5-2.16 0-1.24997.99001-2.27997 2.2-2.27997h1.88c1.33 0 2.42 1.12 2.42 2.49997 0 .41-.34.75-.75.75s-.75-.34-.75-.75c0-.54997-.41-.99997-.92-.99997h-1.88c-.39 0-.7.35-.7.77997 0 .54.15.62.49.74l3.01 1.05c.64.22 1.5.69 1.5 2.16 0 1.26-.99 2.28-2.2 2.28z"/><path d="m12 17.25c-.41 0-.75-.34-.75-.75v-9c0-.41.34-.75.75-.75s.75.34.75.75v9c0 .41-.34.75-.75.75z"/><path d="m12 22.75c-5.93 0-10.75-4.82-10.75-10.75s4.82-10.75 10.75-10.75c.41 0 .75.34.75.75s-.34.75-.75.75c-5.1 0-9.25 4.15-9.25 9.25s4.15 9.25 9.25 9.25 9.25-4.15 9.25-9.25c0-.41.34-.75.75-.75s.75.34.75.75c0 5.93-4.82 10.75-10.75 10.75z"/><path d="m21 7.75h-4c-.41 0-.75-.34-.75-.75v-4c0-.41.34-.75.75-.75s.75.34.75.75v3.25h3.25c.41 0 .75.34.75.75s-.34.75-.75.75z"/><path d="m16.9995 7.74994c-.19 0-.38-.07-.53-.22-.29-.29-.29-.77 0-1.06l5-5c.29-.29.77-.29 1.06 0s.29.77 0 1.06l-5 5c-.15.15-.34.22-.53.22z"/></g></svg>