<svg fill="none" height="24" viewBox="0 0 24 24" width="24" xmlns="http://www.w3.org/2000/svg"><g clip-rule="evenodd" fill="#000" fill-rule="evenodd"><path d="m18 3h-12c-.55228 0-1 .44772-1 1v16.2918c0 .0171.00359.0238.00551.0271.00324.0056.00989.0135.02092.0203s.02108.0092.02754.0096c.00383.0003.01141.0005.02668-.0072.57874-.2893 1.25996-.2893 1.8387 0l.63344.3168c.28152.1407.6129.1407.89442 0l.21115-.1056c.84458-.4223 1.83874-.4223 2.68324 0l.2112.1056c.2815.1407.6129.1407.8944 0l.2112-.1056c.8445-.4223 1.8387-.4223 2.6832 0l.2112.1056c.2815.1407.6129.1407.8944 0l.6335-.3168c.5787-.2893 1.2599-.2893 1.8386 0 .0153.0077.0229.0075.0267.0072.0065-.0004.0165-.0028.0276-.0096.011-.0068.0176-.0147.0209-.0203.0019-.0033.0055-.01.0055-.0271v-16.2918c0-.55228-.4477-1-1-1zm-12-1c-1.10457 0-2 .89543-2 2v16.2918c0 .7848.82591 1.2952 1.52786.9443.29722-.1486.64706-.1486.94428 0l.63343.3167c.56306.2815 1.2258.2815 1.78886 0l.21114-.1056c.56306-.2815 1.22583-.2815 1.78883 0l.2112.1056c.563.2815 1.2258.2815 1.7888 0l.2112-.1056c.563-.2815 1.2258-.2815 1.7888 0l.2112.1056c.563.2815 1.2258.2815 1.7888 0l.6335-.3167c.2972-.1486.647-.1486.9442 0 .702.3509 1.5279-.1595 1.5279-.9443v-16.2918c0-1.10457-.8954-2-2-2z"/><path d="m13.5 17.5c0-.2761.2239-.5.5-.5h2.5c.2761 0 .5.2239.5.5s-.2239.5-.5.5h-2.5c-.2761 0-.5-.2239-.5-.5z"/><path d="m7 14.5c0-.2761.22386-.5.5-.5h5c.2761 0 .5.2239.5.5s-.2239.5-.5.5h-5c-.27614 0-.5-.2239-.5-.5z"/><path d="m15 14.5c0-.2761.2239-.5.5-.5h1c.2761 0 .5.2239.5.5s-.2239.5-.5.5h-1c-.2761 0-.5-.2239-.5-.5z"/><path d="m7 12c0-.2761.22386-.5.5-.5h5c.2761 0 .5.2239.5.5s-.2239.5-.5.5h-5c-.27614 0-.5-.2239-.5-.5z"/><path d="m15 12c0-.2761.2239-.5.5-.5h1c.2761 0 .5.2239.5.5s-.2239.5-.5.5h-1c-.2761 0-.5-.2239-.5-.5z"/><path d="m15 9.5c0-.27614.2239-.5.5-.5h1c.2761 0 .5.22386.5.5s-.2239.5-.5.5h-1c-.2761 0-.5-.22386-.5-.5z"/><path d="m7 9.5c0-.27614.22386-.5.5-.5h5c.2761 0 .5.22386.5.5s-.2239.5-.5.5h-5c-.27614 0-.5-.22386-.5-.5z"/><path d="m7 5.5c0-.27614.22386-.5.5-.5h3c.2761 0 .5.22386.5.5s-.2239.5-.5.5h-3c-.27614 0-.5-.22386-.5-.5z"/></g></svg>